STARTFONT 2.1
COMMENT $Xorg: 5x8.bdf,v 1.3 2000/08/18 15:17:39 xorgcvs Exp $
COMMENT Copyright 1989 Cognition Corp.
COMMENT 
COMMENT Permission to use, copy, modify, and distribute this software and its
COMMENT documentation for any purpose and without fee is hereby granted,
COMMENT provided that the above copyright notice appear in all copies and that
COMMENT both that copyright notice and this permission notice appear in
COMMENT supporting documentation, and that the name of Cognition Corp. not be
COMMENT used in advertising or publicity pertaining to distribution of the
COMMENT software without specific, written prior permission.  Cognition Corp.
COMMENT makes no representations about the suitability of this software for any
COMMENT purpose.  It is provided "as is" without express or implied warranty.
COMMENT 
COMMENT COGNITION CORP. DISCLAIMS ALL WARRANTIES WITH REGARD TO THIS SOFTWARE,
COMMENT INCLUDING ALL IMPLIED WARRANTIES OF MERCHANTABILITY AND FITNESS, IN NO
COMMENT EVENT SHALL COGNITION CORP.  BE LIABLE FOR ANY SPECIAL, INDIRECT OR
COMMENT CONSEQUENTIAL DAMAGES OR ANY DAMAGES WHATSOEVER RESULTING FROM LOSS OF
COMMENT USE, DATA OR PROFITS, WHETHER IN AN ACTION OF CONTRACT, NEGLIGENCE OR
COMMENT OTHER TORTIOUS ACTION, ARISING OUT OF OR IN CONNECTION WITH THE USE OR
COMMENT PERFORMANCE OF THIS SOFTWARE.
FONT -Misc-Fixed-Medium-R-Normal--8-80-75-75-C-50-ISO646.1991-IRV
SIZE 11 75 75
FONTBOUNDINGBOX 5 8 0 0
STARTPROPERTIES 19
FONTNAME_REGISTRY ""
FOUNDRY "Misc"
FAMILY_NAME "Fixed"
WEIGHT_NAME "Medium"
SLANT "R"
SETWIDTH_NAME "Normal"
ADD_STYLE_NAME ""
PIXEL_SIZE 8
POINT_SIZE 80
RESOLUTION_X 75
RESOLUTION_Y 75
SPACING "C"
AVERAGE_WIDTH 50
CHARSET_REGISTRY "ISO646.1991"
CHARSET_ENCODING "IRV"
FONT_DESCENT 1
FONT_ASCENT 7
COPYRIGHT "Copyright 1989 by Cognition Corp."
DEFAULT_CHAR 0
ENDPROPERTIES
CHARS 128
STARTCHAR C000
ENCODING 0
SWIDTH 1 0
DWIDTH 5 0
BBX 5 8 0 -1
BITMAP
00
00
00
00
00
00
00
00
ENDCHAR
STARTCHAR C001
ENCODING 1
SWIDTH 1 0
DWIDTH 5 0
BBX 5 8 0 -1
BITMAP
00
20
70
f8
70
20
00
00
ENDCHAR
STARTCHAR C002
ENCODING 2
SWIDTH 1 0
DWIDTH 5 0
BBX 5 8 0 -1
BITMAP
00
28
50
28
50
28
50
28
ENDCHAR
STARTCHAR C003
ENCODING 3
SWIDTH 1 0
DWIDTH 5 0
BBX 5 8 0 -1
BITMAP
50
50
70
50
50
38
10
10
ENDCHAR
STARTCHAR C004
ENCODING 4
SWIDTH 1 0
DWIDTH 5 0
BBX 5 8 0 -1
BITMAP
e0
80
c0
b8
a0
30
20
20
ENDCHAR
STARTCHAR C005
ENCODING 5
SWIDTH 1 0
DWIDTH 5 0
BBX 5 8 0 -1
BITMAP
60
80
60
00
30
28
30
28
ENDCHAR
STARTCHAR C006
ENCODING 6
SWIDTH 1 0
DWIDTH 5 0
BBX 5 8 0 -1
BITMAP
80
80
80
e0
38
20
30
20
ENDCHAR
STARTCHAR C007
ENCODING 7
SWIDTH 1 0
DWIDTH 5 0
BBX 5 8 0 -1
BITMAP
00
20
50
20
00
00
00
00
ENDCHAR
STARTCHAR C010
ENCODING 8
SWIDTH 1 0
DWIDTH 5 0
BBX 5 8 0 -1
BITMAP
00
20
70
20
00
70
00
00
ENDCHAR
STARTCHAR C011
ENCODING 9
SWIDTH 1 0
DWIDTH 5 0
BBX 5 8 0 -1
BITMAP
90
d0
b0
90
20
20
20
38
ENDCHAR
STARTCHAR C012
ENCODING 10
SWIDTH 1 0
DWIDTH 5 0
BBX 5 8 0 -1
BITMAP
a0
a0
a0
40
38
10
10
10
ENDCHAR
STARTCHAR C013
ENCODING 11
SWIDTH 1 0
DWIDTH 5 0
BBX 5 8 0 -1
BITMAP
20
20
20
e0
00
00
00
00
ENDCHAR
STARTCHAR C014
ENCODING 12
SWIDTH 1 0
DWIDTH 5 0
BBX 5 8 0 -1
BITMAP
00
00
00
e0
20
20
20
20
ENDCHAR
STARTCHAR C015
ENCODING 13
SWIDTH 1 0
DWIDTH 5 0
BBX 5 8 0 -1
BITMAP
00
00
00
38
20
20
20
20
ENDCHAR
STARTCHAR C016
ENCODING 14
SWIDTH 1 0
DWIDTH 5 0
BBX 5 8 0 -1
BITMAP
20
20
20
38
00
00
00
00
ENDCHAR
STARTCHAR C017
ENCODING 15
SWIDTH 1 0
DWIDTH 5 0
BBX 5 8 0 -1
BITMAP
20
20
20
f8
20
20
20
20
ENDCHAR
STARTCHAR C020
ENCODING 16
SWIDTH 1 0
DWIDTH 5 0
BBX 5 8 0 -1
BITMAP
00
f8
00
00
00
00
00
00
ENDCHAR
STARTCHAR C021
ENCODING 17
SWIDTH 1 0
DWIDTH 5 0
BBX 5 8 0 -1
BITMAP
00
00
f8
00
00
00
00
00
ENDCHAR
STARTCHAR C022
ENCODING 18
SWIDTH 1 0
DWIDTH 5 0
BBX 5 8 0 -1
BITMAP
00
00
00
f8
00
00
00
00
ENDCHAR
STARTCHAR C023
ENCODING 19
SWIDTH 1 0
DWIDTH 5 0
BBX 5 8 0 -1
BITMAP
00
00
00
00
f8
00
00
00
ENDCHAR
STARTCHAR C024
ENCODING 20
SWIDTH 1 0
DWIDTH 5 0
BBX 5 8 0 -1
BITMAP
00
00
00
00
00
f8
00
00
ENDCHAR
STARTCHAR C025
ENCODING 21
SWIDTH 1 0
DWIDTH 5 0
BBX 5 8 0 -1
BITMAP
20
20
20
38
20
20
20
20
ENDCHAR
STARTCHAR C026
ENCODING 22
SWIDTH 1 0
DWIDTH 5 0
BBX 5 8 0 -1
BITMAP
20
20
20
e0
20
20
20
20
ENDCHAR
STARTCHAR C027
ENCODING 23
SWIDTH 1 0
DWIDTH 5 0
BBX 5 8 0 -1
BITMAP
20
20
20
f8
00
00
00
00
ENDCHAR
STARTCHAR C030
ENCODING 24
SWIDTH 1 0
DWIDTH 5 0
BBX 5 8 0 -1
BITMAP
00
00
00
f8
20
20
20
20
ENDCHAR
STARTCHAR C031
ENCODING 25
SWIDTH 1 0
DWIDTH 5 0
BBX 5 8 0 -1
BITMAP
20
20
20
20
20
20
20
20
ENDCHAR
STARTCHAR C032
ENCODING 26
SWIDTH 1 0
DWIDTH 5 0
BBX 5 8 0 -1
BITMAP
00
10
20
40
20
10
70
00
ENDCHAR
STARTCHAR C033
ENCODING 27
SWIDTH 1 0
DWIDTH 5 0
BBX 5 8 0 -1
BITMAP
00
40
20
10
20
40
70
00
ENDCHAR
STARTCHAR C034
ENCODING 28
SWIDTH 1 0
DWIDTH 5 0
BBX 5 8 0 -1
BITMAP
00
f8
50
50
50
50
00
00
ENDCHAR
STARTCHAR C035
ENCODING 29
SWIDTH 1 0
DWIDTH 5 0
BBX 5 8 0 -1
BITMAP
00
10
f8
20
f8
40
00
00
ENDCHAR
STARTCHAR C036
ENCODING 30
SWIDTH 1 0
DWIDTH 5 0
BBX 5 8 0 -1
BITMAP
00
30
48
e0
40
48
b0
00
ENDCHAR
STARTCHAR C037
ENCODING 31
SWIDTH 1 0
DWIDTH 5 0
BBX 5 8 0 -1
BITMAP
00
00
00
20
00
00
00
00
ENDCHAR
STARTCHAR C040
ENCODING 32
SWIDTH 1 0
DWIDTH 5 0
BBX 5 8 0 -1
BITMAP
00
00
00
00
00
00
00
00
ENDCHAR
STARTCHAR !
ENCODING 33
SWIDTH 1 0
DWIDTH 5 0
BBX 5 8 0 -1
BITMAP
00
20
20
20
20
00
20
00
ENDCHAR
STARTCHAR "
ENCODING 34
SWIDTH 1 0
DWIDTH 5 0
BBX 5 8 0 -1
BITMAP
00
50
50
50
00
00
00
00
ENDCHAR
STARTCHAR #
ENCODING 35
SWIDTH 1 0
DWIDTH 5 0
BBX 5 8 0 -1
BITMAP
50
50
f8
50
f8
50
50
00
ENDCHAR
STARTCHAR $
ENCODING 36
SWIDTH 1 0
DWIDTH 5 0
BBX 5 8 0 -1
BITMAP
20
70
a0
70
28
70
20
00
ENDCHAR
STARTCHAR %
ENCODING 37
SWIDTH 1 0
DWIDTH 5 0
BBX 5 8 0 -1
BITMAP
00
40
50
20
50
10
00
00
ENDCHAR
STARTCHAR &
ENCODING 38
SWIDTH 1 0
DWIDTH 5 0
BBX 5 8 0 -1
BITMAP
20
50
50
20
50
50
28
00
ENDCHAR
STARTCHAR '
ENCODING 39
SWIDTH 1 0
DWIDTH 5 0
BBX 5 8 0 -1
BITMAP
00
30
20
40
00
00
00
00
ENDCHAR
STARTCHAR (
ENCODING 40
SWIDTH 1 0
DWIDTH 5 0
BBX 5 8 0 -1
BITMAP
00
10
20
20
20
10
00
00
ENDCHAR
STARTCHAR )
ENCODING 41
SWIDTH 1 0
DWIDTH 5 0
BBX 5 8 0 -1
BITMAP
00
40
20
20
20
40
00
00
ENDCHAR
STARTCHAR *
ENCODING 42
SWIDTH 1 0
DWIDTH 5 0
BBX 5 8 0 -1
BITMAP
00
48
30
78
30
48
00
00
ENDCHAR
STARTCHAR +
ENCODING 43
SWIDTH 1 0
DWIDTH 5 0
BBX 5 8 0 -1
BITMAP
00
20
20
f8
20
20
00
00
ENDCHAR
STARTCHAR ,
ENCODING 44
SWIDTH 1 0
DWIDTH 5 0
BBX 5 8 0 -1
BITMAP
00
00
00
00
30
20
40
00
ENDCHAR
STARTCHAR -
ENCODING 45
SWIDTH 1 0
DWIDTH 5 0
BBX 5 8 0 -1
BITMAP
00
00
00
00
78
00
00
00
ENDCHAR
STARTCHAR .
ENCODING 46
SWIDTH 1 0
DWIDTH 5 0
BBX 5 8 0 -1
BITMAP
00
00
00
00
20
70
20
00
ENDCHAR
STARTCHAR /
ENCODING 47
SWIDTH 1 0
DWIDTH 5 0
BBX 5 8 0 -1
BITMAP
00
08
08
10
20
40
40
00
ENDCHAR
STARTCHAR 0
ENCODING 48
SWIDTH 1 0
DWIDTH 5 0
BBX 5 8 0 -1
BITMAP
00
20
50
50
50
50
20
00
ENDCHAR
STARTCHAR 1
ENCODING 49
SWIDTH 1 0
DWIDTH 5 0
BBX 5 8 0 -1
BITMAP
00
20
60
20
20
20
70
00
ENDCHAR
STARTCHAR 2
ENCODING 50
SWIDTH 1 0
DWIDTH 5 0
BBX 5 8 0 -1
BITMAP
00
30
48
08
30
40
78
00
ENDCHAR
STARTCHAR 3
ENCODING 51
SWIDTH 1 0
DWIDTH 5 0
BBX 5 8 0 -1
BITMAP
00
30
48
10
08
48
30
00
ENDCHAR
STARTCHAR 4
ENCODING 52
SWIDTH 1 0
DWIDTH 5 0
BBX 5 8 0 -1
BITMAP
00
10
30
50
78
10
10
00
ENDCHAR
STARTCHAR 5
ENCODING 53
SWIDTH 1 0
DWIDTH 5 0
BBX 5 8 0 -1
BITMAP
00
78
40
70
08
48
30
00
ENDCHAR
STARTCHAR 6
ENCODING 54
SWIDTH 1 0
DWIDTH 5 0
BBX 5 8 0 -1
BITMAP
00
30
40
50
68
48
30
00
ENDCHAR
STARTCHAR 7
ENCODING 55
SWIDTH 1 0
DWIDTH 5 0
BBX 5 8 0 -1
BITMAP
00
78
08
10
10
20
20
00
ENDCHAR
STARTCHAR 8
ENCODING 56
SWIDTH 1 0
DWIDTH 5 0
BBX 5 8 0 -1
BITMAP
00
30
48
30
48
48
30
00
ENDCHAR
STARTCHAR 9
ENCODING 57
SWIDTH 1 0
DWIDTH 5 0
BBX 5 8 0 -1
BITMAP
00
30
48
58
28
08
30
00
ENDCHAR
STARTCHAR :
ENCODING 58
SWIDTH 1 0
DWIDTH 5 0
BBX 5 8 0 -1
BITMAP
00
30
30
00
30
30
00
00
ENDCHAR
STARTCHAR ;
ENCODING 59
SWIDTH 1 0
DWIDTH 5 0
BBX 5 8 0 -1
BITMAP
00
30
30
00
30
20
40
00
ENDCHAR
STARTCHAR <
ENCODING 60
SWIDTH 1 0
DWIDTH 5 0
BBX 5 8 0 -1
BITMAP
00
10
20
40
40
20
10
00
ENDCHAR
STARTCHAR =
ENCODING 61
SWIDTH 1 0
DWIDTH 5 0
BBX 5 8 0 -1
BITMAP
00
00
70
00
70
00
00
00
ENDCHAR
STARTCHAR >
ENCODING 62
SWIDTH 1 0
DWIDTH 5 0
BBX 5 8 0 -1
BITMAP
00
40
20
10
10
20
40
00
ENDCHAR
STARTCHAR ?
ENCODING 63
SWIDTH 1 0
DWIDTH 5 0
BBX 5 8 0 -1
BITMAP
00
20
50
10
20
00
20
00
ENDCHAR
STARTCHAR @
ENCODING 64
SWIDTH 1 0
DWIDTH 5 0
BBX 5 8 0 -1
BITMAP
30
48
98
a8
a8
90
40
30
ENDCHAR
STARTCHAR A
ENCODING 65
SWIDTH 1 0
DWIDTH 5 0
BBX 5 8 0 -1
BITMAP
00
30
48
48
78
48
48
00
ENDCHAR
STARTCHAR B
ENCODING 66
SWIDTH 1 0
DWIDTH 5 0
BBX 5 8 0 -1
BITMAP
00
70
48
70
48
48
70
00
ENDCHAR
STARTCHAR C
ENCODING 67
SWIDTH 1 0
DWIDTH 5 0
BBX 5 8 0 -1
BITMAP
00
30
48
40
40
48
30
00
ENDCHAR
STARTCHAR D
ENCODING 68
SWIDTH 1 0
DWIDTH 5 0
BBX 5 8 0 -1
BITMAP
00
70
48
48
48
48
70
00
ENDCHAR
STARTCHAR E
ENCODING 69
SWIDTH 1 0
DWIDTH 5 0
BBX 5 8 0 -1
BITMAP
00
78
40
70
40
40
78
00
ENDCHAR
STARTCHAR F
ENCODING 70
SWIDTH 1 0
DWIDTH 5 0
BBX 5 8 0 -1
BITMAP
00
78
40
70
40
40
40
00
ENDCHAR
STARTCHAR G
ENCODING 71
SWIDTH 1 0
DWIDTH 5 0
BBX 5 8 0 -1
BITMAP
00
30
48
40
58
48
30
00
ENDCHAR
STARTCHAR H
ENCODING 72
SWIDTH 1 0
DWIDTH 5 0
BBX 5 8 0 -1
BITMAP
00
48
48
78
48
48
48
00
ENDCHAR
STARTCHAR I
ENCODING 73
SWIDTH 1 0
DWIDTH 5 0
BBX 5 8 0 -1
BITMAP
00
70
20
20
20
20
70
00
ENDCHAR
STARTCHAR J
ENCODING 74
SWIDTH 1 0
DWIDTH 5 0
BBX 5 8 0 -1
BITMAP
00
38
08
08
08
48
30
00
ENDCHAR
STARTCHAR K
ENCODING 75
SWIDTH 1 0
DWIDTH 5 0
BBX 5 8 0 -1
BITMAP
00
48
50
60
50
50
48
00
ENDCHAR
STARTCHAR L
ENCODING 76
SWIDTH 1 0
DWIDTH 5 0
BBX 5 8 0 -1
BITMAP
00
40
40
40
40
40
70
00
ENDCHAR
STARTCHAR M
ENCODING 77
SWIDTH 1 0
DWIDTH 5 0
BBX 5 8 0 -1
BITMAP
00
48
78
78
48
48
48
00
ENDCHAR
STARTCHAR N
ENCODING 78
SWIDTH 1 0
DWIDTH 5 0
BBX 5 8 0 -1
BITMAP
00
48
68
78
58
58
48
00
ENDCHAR
STARTCHAR O
ENCODING 79
SWIDTH 1 0
DWIDTH 5 0
BBX 5 8 0 -1
BITMAP
00
30
48
48
48
48
30
00
ENDCHAR
STARTCHAR P
ENCODING 80
SWIDTH 1 0
DWIDTH 5 0
BBX 5 8 0 -1
BITMAP
00
70
48
48
70
40
40
00
ENDCHAR
STARTCHAR Q
ENCODING 81
SWIDTH 1 0
DWIDTH 5 0
BBX 5 8 0 -1
BITMAP
00
30
48
48
68
58
30
08
ENDCHAR
STARTCHAR R
ENCODING 82
SWIDTH 1 0
DWIDTH 5 0
BBX 5 8 0 -1
BITMAP
00
70
48
48
70
58
48
00
ENDCHAR
STARTCHAR S
ENCODING 83
SWIDTH 1 0
DWIDTH 5 0
BBX 5 8 0 -1
BITMAP
00
30
48
20
10
48
30
00
ENDCHAR
STARTCHAR T
ENCODING 84
SWIDTH 1 0
DWIDTH 5 0
BBX 5 8 0 -1
BITMAP
00
f8
20
20
20
20
20
00
ENDCHAR
STARTCHAR U
ENCODING 85
SWIDTH 1 0
DWIDTH 5 0
BBX 5 8 0 -1
BITMAP
00
48
48
48
48
48
30
00
ENDCHAR
STARTCHAR V
ENCODING 86
SWIDTH 1 0
DWIDTH 5 0
BBX 5 8 0 -1
BITMAP
00
48
48
48
48
30
30
00
ENDCHAR
STARTCHAR W
ENCODING 87
SWIDTH 1 0
DWIDTH 5 0
BBX 5 8 0 -1
BITMAP
00
48
48
48
78
78
48
00
ENDCHAR
STARTCHAR X
ENCODING 88
SWIDTH 1 0
DWIDTH 5 0
BBX 5 8 0 -1
BITMAP
00
48
48
30
30
48
48
00
ENDCHAR
STARTCHAR Y
ENCODING 89
SWIDTH 1 0
DWIDTH 5 0
BBX 5 8 0 -1
BITMAP
00
88
88
50
20
20
20
00
ENDCHAR
STARTCHAR Z
ENCODING 90
SWIDTH 1 0
DWIDTH 5 0
BBX 5 8 0 -1
BITMAP
00
78
08
10
20
40
78
00
ENDCHAR
STARTCHAR [
ENCODING 91
SWIDTH 1 0
DWIDTH 5 0
BBX 5 8 0 -1
BITMAP
00
70
40
40
40
40
70
00
ENDCHAR
STARTCHAR \
ENCODING 92
SWIDTH 1 0
DWIDTH 5 0
BBX 5 8 0 -1
BITMAP
00
40
40
20
10
08
08
00
ENDCHAR
STARTCHAR ]
ENCODING 93
SWIDTH 1 0
DWIDTH 5 0
BBX 5 8 0 -1
BITMAP
00
70
10
10
10
10
70
00
ENDCHAR
STARTCHAR ^
ENCODING 94
SWIDTH 1 0
DWIDTH 5 0
BBX 5 8 0 -1
BITMAP
00
20
50
50
00
00
00
00
ENDCHAR
STARTCHAR _
ENCODING 95
SWIDTH 1 0
DWIDTH 5 0
BBX 5 8 0 -1
BITMAP
00
00
00
00
00
00
00
78
ENDCHAR
STARTCHAR `
ENCODING 96
SWIDTH 1 0
DWIDTH 5 0
BBX 5 8 0 -1
BITMAP
00
60
40
20
00
00
00
00
ENDCHAR
STARTCHAR a
ENCODING 97
SWIDTH 1 0
DWIDTH 5 0
BBX 5 8 0 -1
BITMAP
00
00
00
28
58
58
28
00
ENDCHAR
STARTCHAR b
ENCODING 98
SWIDTH 1 0
DWIDTH 5 0
BBX 5 8 0 -1
BITMAP
00
40
40
70
48
48
70
00
ENDCHAR
STARTCHAR c
ENCODING 99
SWIDTH 1 0
DWIDTH 5 0
BBX 5 8 0 -1
BITMAP
00
00
00
30
40
40
30
00
ENDCHAR
STARTCHAR d
ENCODING 100
SWIDTH 1 0
DWIDTH 5 0
BBX 5 8 0 -1
BITMAP
00
08
08
28
58
58
28
00
ENDCHAR
STARTCHAR e
ENCODING 101
SWIDTH 1 0
DWIDTH 5 0
BBX 5 8 0 -1
BITMAP
00
00
00
30
78
40
30
00
ENDCHAR
STARTCHAR f
ENCODING 102
SWIDTH 1 0
DWIDTH 5 0
BBX 5 8 0 -1
BITMAP
00
10
28
20
70
20
20
00
ENDCHAR
STARTCHAR g
ENCODING 103
SWIDTH 1 0
DWIDTH 5 0
BBX 5 8 0 -1
BITMAP
00
00
00
30
48
38
08
30
ENDCHAR
STARTCHAR h
ENCODING 104
SWIDTH 1 0
DWIDTH 5 0
BBX 5 8 0 -1
BITMAP
00
40
40
70
48
48
48
00
ENDCHAR
STARTCHAR i
ENCODING 105
SWIDTH 1 0
DWIDTH 5 0
BBX 5 8 0 -1
BITMAP
00
20
00
60
20
20
70
00
ENDCHAR
STARTCHAR j
ENCODING 106
SWIDTH 1 0
DWIDTH 5 0
BBX 5 8 0 -1
BITMAP
00
10
00
10
10
10
50
20
ENDCHAR
STARTCHAR k
ENCODING 107
SWIDTH 1 0
DWIDTH 5 0
BBX 5 8 0 -1
BITMAP
00
40
40
48
70
48
48
00
ENDCHAR
STARTCHAR l
ENCODING 108
SWIDTH 1 0
DWIDTH 5 0
BBX 5 8 0 -1
BITMAP
00
60
20
20
20
20
70
00
ENDCHAR
STARTCHAR m
ENCODING 109
SWIDTH 1 0
DWIDTH 5 0
BBX 5 8 0 -1
BITMAP
00
00
00
50
a8
a8
88
00
ENDCHAR
STARTCHAR n
ENCODING 110
SWIDTH 1 0
DWIDTH 5 0
BBX 5 8 0 -1
BITMAP
00
00
00
70
48
48
48
00
ENDCHAR
STARTCHAR o
ENCODING 111
SWIDTH 1 0
DWIDTH 5 0
BBX 5 8 0 -1
BITMAP
00
00
00
30
48
48
30
00
ENDCHAR
STARTCHAR p
ENCODING 112
SWIDTH 1 0
DWIDTH 5 0
BBX 5 8 0 -1
BITMAP
00
00
00
70
48
70
40
40
ENDCHAR
STARTCHAR q
ENCODING 113
SWIDTH 1 0
DWIDTH 5 0
BBX 5 8 0 -1
BITMAP
00
00
00
38
48
38
08
08
ENDCHAR
STARTCHAR r
ENCODING 114
SWIDTH 1 0
DWIDTH 5 0
BBX 5 8 0 -1
BITMAP
00
00
00
50
68
40
40
00
ENDCHAR
STARTCHAR s
ENCODING 115
SWIDTH 1 0
DWIDTH 5 0
BBX 5 8 0 -1
BITMAP
00
00
00
70
60
10
70
00
ENDCHAR
STARTCHAR t
ENCODING 116
SWIDTH 1 0
DWIDTH 5 0
BBX 5 8 0 -1
BITMAP
00
20
20
70
20
28
10
00
ENDCHAR
STARTCHAR u
ENCODING 117
SWIDTH 1 0
DWIDTH 5 0
BBX 5 8 0 -1
BITMAP
00
00
00
48
48
48
38
00
ENDCHAR
STARTCHAR v
ENCODING 118
SWIDTH 1 0
DWIDTH 5 0
BBX 5 8 0 -1
BITMAP
00
00
00
50
50
50
20
00
ENDCHAR
STARTCHAR w
ENCODING 119
SWIDTH 1 0
DWIDTH 5 0
BBX 5 8 0 -1
BITMAP
00
00
00
88
a8
a8
70
00
ENDCHAR
STARTCHAR x
ENCODING 120
SWIDTH 1 0
DWIDTH 5 0
BBX 5 8 0 -1
BITMAP
00
00
00
48
30
30
48
00
ENDCHAR
STARTCHAR y
ENCODING 121
SWIDTH 1 0
DWIDTH 5 0
BBX 5 8 0 -1
BITMAP
00
00
00
48
48
38
48
30
ENDCHAR
STARTCHAR z
ENCODING 122
SWIDTH 1 0
DWIDTH 5 0
BBX 5 8 0 -1
BITMAP
00
00
00
78
10
20
78
00
ENDCHAR
STARTCHAR {
ENCODING 123
SWIDTH 1 0
DWIDTH 5 0
BBX 5 8 0 -1
BITMAP
18
20
10
60
10
20
18
00
ENDCHAR
STARTCHAR |
ENCODING 124
SWIDTH 1 0
DWIDTH 5 0
BBX 5 8 0 -1
BITMAP
00
20
20
20
20
20
20
00
ENDCHAR
STARTCHAR }
ENCODING 125
SWIDTH 1 0
DWIDTH 5 0
BBX 5 8 0 -1
BITMAP
60
10
20
18
20
10
60
00
ENDCHAR
STARTCHAR ~
ENCODING 126
SWIDTH 1 0
DWIDTH 5 0
BBX 5 8 0 -1
BITMAP
00
28
50
00
00
00
00
00
ENDCHAR
STARTCHAR C177
ENCODING 127
SWIDTH 1 0
DWIDTH 5 0
BBX 5 8 0 -1
BITMAP
00
00
00
00
00
00
00
00
ENDCHAR
ENDFONT
